<svg xmlns="http://www.w3.org/2000/svg" viewBox="0 0 56.73 58.89"><defs><style>.cls-1{fill:#9357a3;}.cls-2{fill:#ffe49f;}.cls-3{fill:#231f20;}</style></defs><g id="Layer_2" data-name="Layer 2"><g id="Layer_1-2" data-name="Layer 1"><path class="cls-1" d="M32.42.3a28.36,28.36,0,0,0-8.11,56.14c9,1.3,24,4,26.43,1.21,1.9-2.26,4.76-18.73,5.7-25.23A28.36,28.36,0,0,0,32.42.3ZM25.28,49.7A21.56,21.56,0,1,1,49.7,31.45c-.82,5.68-2.9,18.27-4.77,19.79S31.39,50.58,25.28,49.7Z"/><path class="cls-2" d="M31.81,7.75a21.21,21.21,0,0,0-6,42c6,.87,17.49,3,19.26,1.52s3.87-13.89,4.68-19.47A21.2,21.2,0,0,0,31.81,7.75Z"/><path class="cls-3" d="M32.39,3.75a25,25,0,0,0-7.16,49.49c7.94,1.14,21.19,3.56,23.3,1.06,1.67-2,4.19-16.5,5-22.23A25,25,0,0,0,32.39,3.75ZM26.09,47.3A19,19,0,1,1,47.61,31.21c-.72,5-2.55,16.11-4.2,17.44S31.47,48.08,26.09,47.3Z"/><rect class="cls-3" x="17.98" y="18.13" width="21.66" height="4.78" rx="2.39"/><rect class="cls-3" x="16.98" y="26.9" width="23.67" height="4.78" rx="2.39"/><rect class="cls-3" x="18.31" y="35.3" width="16.33" height="4.78" rx="2.39"/></g></g></svg>