<svg xmlns="http://www.w3.org/2000/svg" viewBox="0 0 117.31 75.54"><defs><style>.cls-1{fill:#084c7e;}.cls-2{fill:#00aeef;}</style></defs><g id="Layer_2" data-name="Layer 2"><g id="Layer_1-2" data-name="Layer 1"><path class="cls-1" d="M33.65,0H91.19a26.12,26.12,0,0,1,26.12,26.12V41.17A26.12,26.12,0,0,1,91.19,67.29H33.65A33.65,33.65,0,0,1,0,33.65v0A33.65,33.65,0,0,1,33.65,0Z"/><path class="cls-1" d="M97.58,44.34A25.35,25.35,0,0,1,100,33.71a2.53,2.53,0,0,0-3.2-3.41C84,35.22,75.94,42.54,75.94,50.72c0,11.16,15,20.73,36.37,24.77a2.54,2.54,0,0,0,2-4.56C103.88,63.85,97.58,54.54,97.58,44.34Z"/><path class="cls-2" d="M89.71,4.07H34.6A29.57,29.57,0,0,0,5,33.65H5A29.57,29.57,0,0,0,34.6,63.22H89.71A23.25,23.25,0,0,0,113,40V27.33A23.25,23.25,0,0,0,89.71,4.07ZM43.64,57.29a25,25,0,1,1,0-47.28,3,3,0,0,1,1.1,5h0a3,3,0,0,1-3.15.7,19,19,0,1,0,0,36,3.07,3.07,0,0,1,3.15.7A3,3,0,0,1,43.64,57.29ZM25.44,35.36a10.61,10.61,0,0,0,7.62,8.51,10.49,10.49,0,0,0,4.8.2,2.77,2.77,0,0,1,2.5.73A2.7,2.7,0,0,1,39,49.35a15.38,15.38,0,0,1-3.13.31A16,16,0,1,1,38.9,18a2.72,2.72,0,0,1,1.45,4.59l-.05.05a2.56,2.56,0,0,1-2.34.68A10.6,10.6,0,0,0,25.44,35.36Zm37.88,5a2.85,2.85,0,0,1,.22,3.4,2.66,2.66,0,0,1-4.2.27,15.83,15.83,0,0,1-3.57-7.66.82.82,0,0,0-.79-.69H52.45a.81.81,0,0,0-.79.69A15.92,15.92,0,0,1,48.09,44a2.66,2.66,0,0,1-4.2-.27,2.83,2.83,0,0,1,.22-3.4A10.59,10.59,0,0,0,44,26.83a2.69,2.69,0,0,1,.22-3.62h0a2.66,2.66,0,0,1,3.89.11A15.8,15.8,0,0,1,51.66,31a.8.8,0,0,0,.79.68H55a.8.8,0,0,0,.79-.68,16,16,0,0,1,3.55-7.66,2.66,2.66,0,0,1,3.89-.11h0a2.7,2.7,0,0,1,.22,3.62,10.56,10.56,0,0,0-.11,13.51Zm15.41-4A2.39,2.39,0,1,1,81.12,34,2.39,2.39,0,0,1,78.73,36.38Zm6.69,7.43a2.76,2.76,0,0,1-3.78.54,2.7,2.7,0,0,1-.48-3.86,10.56,10.56,0,0,0,1.49-11.36,4.38,4.38,0,0,0-7.84,0A10.56,10.56,0,0,0,76.3,40.49a2.7,2.7,0,0,1-.48,3.86A2.78,2.78,0,0,1,72,43.81a16,16,0,0,1-1.3-18.49A6.14,6.14,0,0,1,76,22.42h5.5a6.14,6.14,0,0,1,5.25,2.9,16,16,0,0,1-1.31,18.49Zm23.79-17.08a12.77,12.77,0,0,1-6,3.09V42.41a2.5,2.5,0,0,1-5,0V29.82a12.86,12.86,0,0,1-6.1-3.17,2.53,2.53,0,0,1-.18-3.39,2.31,2.31,0,0,1,3.26-.16,8.27,8.27,0,0,0,11.2-.13,2.12,2.12,0,0,1,3,.2h0A2.55,2.55,0,0,1,109.21,26.73Z"/></g></g></svg>